<svg xmlns="http://www.w3.org/2000/svg" xmlns:xlink="http://www.w3.org/1999/xlink" version="1.1" class="marks" width="303" height="147" viewBox="0 0 303 147" style="background-color: white;"><g fill="none" stroke-miterlimit="10" transform="translate(33,10)"><g class="mark-group role-frame root" role="graphics-object" aria-roledescription="group mark container"><g transform="translate(0,0)"><path class="background" aria-hidden="true" d="M0.5,0.5h200v100h-200Z" fill="transparent" stroke="#ddd"></path><g><g class="mark-group role-axis" aria-hidden="true"><g transform="translate(0.5,100.5)"><path class="background" aria-hidden="true" d="M0,0h0v0h0Z" pointer-events="none"></path><g><g class="mark-rule role-axis-grid" pointer-events="none"><line transform="translate(0,-100)" x2="0" y2="100" stroke="#ddd" stroke-width="1" opacity="1"></line><line transform="translate(29,-100)" x2="0" y2="100" stroke="#ddd" stroke-width="1" opacity="1"></line><line transform="translate(57,-100)" x2="0" y2="100" stroke="#ddd" stroke-width="1" opacity="1"></line><line transform="translate(86,-100)" x2="0" y2="100" stroke="#ddd" stroke-width="1" opacity="1"></line><line transform="translate(114,-100)" x2="0" y2="100" stroke="#ddd" stroke-width="1" opacity="1"></line><line transform="translate(143,-100)" x2="0" y2="100" stroke="#ddd" stroke-width="1" opacity="1"></line><line transform="translate(171,-100)" x2="0" y2="100" stroke="#ddd" stroke-width="1" opacity="1"></line><line transform="translate(200,-100)" x2="0" y2="100" stroke="#ddd" stroke-width="1" opacity="1"></line></g></g><path class="foreground" aria-hidden="true" d="" pointer-events="none" display="none"></path></g></g><g class="mark-group role-axis" aria-hidden="true"><g transform="translate(0.5,0.5)"><path class="background" aria-hidden="true" d="M0,0h0v0h0Z" pointer-events="none"></path><g><g class="mark-rule role-axis-grid" pointer-events="none"><line transform="translate(0,100)" x2="200" y2="0" stroke="#ddd" stroke-width="1" opacity="1"></line><line transform="translate(0,75)" x2="200" y2="0" stroke="#ddd" stroke-width="1" opacity="1"></line><line transform="translate(0,50)" x2="200" y2="0" stroke="#ddd" stroke-width="1" opacity="1"></line><line transform="translate(0,25)" x2="200" y2="0" stroke="#ddd" stroke-width="1" opacity="1"></line><line transform="translate(0,0)" x2="200" y2="0" stroke="#ddd" stroke-width="1" opacity="1"></line></g></g><path class="foreground" aria-hidden="true" d="" pointer-events="none" display="none"></path></g></g><g class="mark-group role-axis" role="graphics-symbol" aria-roledescription="axis" aria-label="X-axis titled 'Fare' for a linear scale with values from 0.00 to 0.35"><g transform="translate(0.5,100.5)"><path class="background" aria-hidden="true" d="M0,0h0v0h0Z" pointer-events="none"></path><g><g class="mark-rule role-axis-tick" pointer-events="none"><line transform="translate(0,0)" x2="0" y2="5" stroke="#888" stroke-width="1" opacity="1"></line><line transform="translate(29,0)" x2="0" y2="5" stroke="#888" stroke-width="1" opacity="1"></line><line transform="translate(57,0)" x2="0" y2="5" stroke="#888" stroke-width="1" opacity="1"></line><line transform="translate(86,0)" x2="0" y2="5" stroke="#888" stroke-width="1" opacity="1"></line><line transform="translate(114,0)" x2="0" y2="5" stroke="#888" stroke-width="1" opacity="1"></line><line transform="translate(143,0)" x2="0" y2="5" stroke="#888" stroke-width="1" opacity="1"></line><line transform="translate(171,0)" x2="0" y2="5" stroke="#888" stroke-width="1" opacity="1"></line><line transform="translate(200,0)" x2="0" y2="5" stroke="#888" stroke-width="1" opacity="1"></line></g><g class="mark-text role-axis-label" pointer-events="none"><text text-anchor="start" transform="translate(0,15)" font-family="sans-serif" font-size="10px" fill="#000" opacity="1">0.00</text><text text-anchor="middle" transform="translate(28.571428571428577,15)" font-family="sans-serif" font-size="10px" fill="#000" opacity="0">0.05</text><text text-anchor="middle" transform="translate(57.14285714285715,15)" font-family="sans-serif" font-size="10px" fill="#000" opacity="1">0.10</text><text text-anchor="middle" transform="translate(85.71428571428572,15)" font-family="sans-serif" font-size="10px" fill="#000" opacity="0">0.15</text><text text-anchor="middle" transform="translate(114.2857142857143,15)" font-family="sans-serif" font-size="10px" fill="#000" opacity="1">0.20</text><text text-anchor="middle" transform="translate(142.85714285714286,15)" font-family="sans-serif" font-size="10px" fill="#000" opacity="0">0.25</text><text text-anchor="middle" transform="translate(171.42857142857144,15)" font-family="sans-serif" font-size="10px" fill="#000" opacity="1">0.30</text><text text-anchor="end" transform="translate(200,15)" font-family="sans-serif" font-size="10px" fill="#000" opacity="0">0.35</text></g><g class="mark-rule role-axis-domain" pointer-events="none"><line transform="translate(0,0)" x2="200" y2="0" stroke="#888" stroke-width="1" opacity="1"></line></g><g class="mark-text role-axis-title" pointer-events="none"><text text-anchor="middle" transform="translate(100,30)" font-family="sans-serif" font-size="11px" font-weight="bold" fill="#000" opacity="1">Fare</text></g></g><path class="foreground" aria-hidden="true" d="" pointer-events="none" display="none"></path></g></g><g class="mark-group role-axis" role="graphics-symbol" aria-roledescription="axis" aria-label="Y-axis titled 'density' for a linear scale with values from 0 to 8"><g transform="translate(0.5,0.5)"><path class="background" aria-hidden="true" d="M0,0h0v0h0Z" pointer-events="none"></path><g><g class="mark-rule role-axis-tick" pointer-events="none"><line transform="translate(0,100)" x2="-5" y2="0" stroke="#888" stroke-width="1" opacity="1"></line><line transform="translate(0,75)" x2="-5" y2="0" stroke="#888" stroke-width="1" opacity="1"></line><line transform="translate(0,50)" x2="-5" y2="0" stroke="#888" stroke-width="1" opacity="1"></line><line transform="translate(0,25)" x2="-5" y2="0" stroke="#888" stroke-width="1" opacity="1"></line><line transform="translate(0,0)" x2="-5" y2="0" stroke="#888" stroke-width="1" opacity="1"></line></g><g class="mark-text role-axis-label" pointer-events="none"><text text-anchor="end" transform="translate(-7,103)" font-family="sans-serif" font-size="10px" fill="#000" opacity="1">0</text><text text-anchor="end" transform="translate(-7,78)" font-family="sans-serif" font-size="10px" fill="#000" opacity="1">2</text><text text-anchor="end" transform="translate(-7,53)" font-family="sans-serif" font-size="10px" fill="#000" opacity="1">4</text><text text-anchor="end" transform="translate(-7,28)" font-family="sans-serif" font-size="10px" fill="#000" opacity="1">6</text><text text-anchor="end" transform="translate(-7,3)" font-family="sans-serif" font-size="10px" fill="#000" opacity="1">8</text></g><g class="mark-rule role-axis-domain" pointer-events="none"><line transform="translate(0,100)" x2="0" y2="-100" stroke="#888" stroke-width="1" opacity="1"></line></g><g class="mark-text role-axis-title" pointer-events="none"><text text-anchor="middle" transform="translate(-16.5615234375,50) rotate(-90) translate(0,-2)" font-family="sans-serif" font-size="11px" font-weight="bold" fill="#000" opacity="1">density</text></g></g><path class="foreground" aria-hidden="true" d="" pointer-events="none" display="none"></path></g></g><g class="mark-group role-scope layer_0_pathgroup" role="graphics-object" aria-roledescription="group mark container"><g transform="translate(0,0)"><path class="background" aria-hidden="true" d="M0,0h200v100h-200Z"></path><g><g class="mark-line role-mark layer_0_marks" role="graphics-object" aria-roledescription="line mark container"><path aria-label="Fare: 0; density: 7.49236701643; Survived: 0" role="graphics-symbol" aria-roledescription="line mark" d="M0,6.345412294650932L0.44462894516313106,6.041623526788187L0.8892578903262621,5.758667587314403L1.3338868354893931,5.496728264373674L1.7785157806525242,5.255975021780279L2.223144725815655,5.036562810716294L2.6677736709787863,4.838631898132784L3.1124026161419174,4.662307712123304L3.5570315613050485,4.507700704512851L4.44628945163131,4.264004448158754L4.890918396794442,4.1750602300968165L5.3355473419575725,4.108123100497229L5.780176287120704,4.0632271845420735L6.224805232283835,4.040391178144398L7.114063122610097,4.060896474201159L8.003321012936357,4.169479946654886L8.89257890326262,4.365736763076578L9.337207848425754,4.496549473099087L9.781836793588884,4.649018493204283L10.671094683915145,5.018436433474016L11.560352574241408,5.472866040189905L12.44961046456767,6.010952440860939L13.338868354893933,6.6311169863261465L14.228126245220194,7.331564799720535L15.117384135546455,8.110293272136094L16.006642025872715,8.96510144905971L16.895899916198978,9.893600246377865L17.340528861362113,10.384688284676125L17.78515780652524,10.893223429944964L18.674415696851508,11.96123928847972L19.563673587177767,13.094762925886638L20.45293147750403,14.290769096041533L21.34218936783029,15.546105500628627L22.231447258156553,16.857506468805163L23.120705148482816,18.221606936285696L24.89922092913534,21.094034451658583L26.677736709787865,24.135021777770614L28.456252490440388,27.315527584798183L32.01328405174543,33.97824720113507L35.57031561305048,40.8530435146225L39.127347174355535,47.72644145939034L42.68437873566058,54.41068676864202L46.24141029696563,60.75080089536071L48.01992607761815,63.753356217814414L49.79844185827068,66.62844987174503L51.57695763892319,69.36714860080787L53.355473419575716,71.96276245583387L55.13398920022824,74.4107340932837L56.912504980880776,76.70850093542265L58.69102076153331,78.85533568030102L59.58027865185957,79.87238508362985L60.46953654218583,80.8521706403421L61.358794432512084,81.79503758966978L62.248052322838355,82.70141122675673L63.13731021316461,83.57179082994223L64.02656810349086,84.40674360406786L64.91582599381714,85.20689867120748L65.8050838841434,85.97294113807304L66.69434177446966,86.70560626712826L67.58359966479593,87.40567377615851L68.47285755512218,88.07396228873307L69.36211544544845,88.71132395566688L70.25137333577472,89.3186392652672L71.14063122610096,89.89681205785328L72.02988911642723,90.44676475778076L72.91914700675349,90.9694338340008L73.80840489707974,91.46576549805549L74.697662787406,91.93671164636174L75.58692067773227,92.38322605168014L76.47617856805854,92.80626080681184L77.3654364583848,93.20676302182129L78.25469434871107,93.58567177445217L79.14395223903735,93.94391531189393L80.03321012936358,94.28240850066713L81.81172591001612,94.90372279398467L83.59024169066865,95.45658422211257L85.36875747132116,95.94762477663107L87.14727325197367,96.38309729647393L88.92578903262621,96.76884647698816" stroke="#4c78a8" stroke-width="2"></path></g></g><path class="foreground" aria-hidden="true" d="" display="none"></path></g><g transform="translate(0,0)"><path class="background" aria-hidden="true" d="M0,0h200v100h-200Z"></path><g><g class="mark-line role-mark layer_0_marks" role="graphics-object" aria-roledescription="line mark container"><path aria-label="Fare: 0; density: 6.50867456255; Survived: 1" role="graphics-symbol" aria-roledescription="line mark" d="M0,18.641567968149097L0.8661459763204213,17.766797810542812L1.7322919526408427,16.950162528862776L2.598437928961264,16.193391219964848L3.4645839052816854,15.498073209615882L4.330729881602107,14.865652086014258L5.196875857922528,14.297420329650222L6.929167810563371,13.357911483383422L7.795313786883792,12.988424386063379L8.661459763204213,12.686700485411206L10.393751715845056,12.288289123025143L11.25989769216548,12.192050850365167L12.126043668485899,12.164473662739361L13.858335621126741,12.314336987196828L14.724481597447165,12.490877982234206L15.590627573767584,12.734286152419417L17.322919526408427,13.41813408617336L18.189065502728848,13.856406893301621L19.05521147904927,14.357223128709185L19.921357455369694,14.919141170308936L20.78750343169011,15.540587177523513L22.51979538433095,16.955148364973528L23.385941360651373,17.74451881500957L24.252087336971794,18.585943494167868L25.118233313292215,19.47729859455144L25.98437928961264,20.416374902177758L27.716671242253483,22.428480022370067L29.44896319489433,24.60321368591255L31.18125514753517,26.920737136782147L34.645839052816854,31.90256432864369L41.57500686338022,42.68488828694775L48.504174673943595,53.56640579157753L51.96875857922528,58.737371656533725L55.433342484506966,63.60942799873646L58.89792638978866,68.12323725529545L62.36251029507034,72.24227811046796L64.09480224771117,74.14802520318837L65.82709420035202,75.95049316945877L67.55938615299286,77.65035592461489L69.29167810563371,79.24914775472696L71.02397005827454,80.74914720921909L72.75626201091539,82.1532618876998L74.48855396355624,83.46491613426655L76.22084591619708,84.68794337801563L77.95313786883793,85.82648457482335L79.68542982147878,86.8848939207417L81.4177217741196,87.86765272868243L82.28386775044004,88.33207913107573L83.15001372676043,88.7792920934784L84.88230567940128,89.62432472086651L85.74845165572171,90.02325402460961L86.61459763204213,90.40718606730653L88.34688958468297,91.13218473267531L89.21303556100341,91.47428714171362L90.07918153732382,91.80346186863994L91.81147348996467,92.42495921292068L92.6776194662851,92.71821170164804L93.5437654426055,93.00039523393247L95.27605739524635,93.53324877100114L97.00834934788719,94.0267494814704L98.74064130052804,94.48387435607036L100.47293325316886,94.90734953605674L102.2052252058097,95.29965665772244L103.93751715845056,95.66304295960447L105.66980911109141,95.9995344126112L107.40210106373225,96.3109511708808L109.13439301637308,96.59892468895617L110.86668496901393,96.86491590640108L112.59897692165477,97.1102339619626L114.33126887429562,97.33605496364524L116.06356082693648,97.543440406617L117.79585277957732,97.73335489595908L119.52814473221815,97.90668289436874L121.260436684859,98.06424427476146L124.72502059014067,98.33510740879868L128.18960449542234,98.55171347016095L131.65418840070404,98.71954879105927L135.11877230598571,98.8440501473977L138.58335621126741,98.93074408111252L145.51252402183079,99.01352387007539L152.44169183239416,99.01431183595508L159.37085964295756,98.97829037946934L166.30002745352087,98.94473803067024L173.22919526408427,98.94236632761306" stroke="#f58518" stroke-width="2"></path></g></g><path class="foreground" aria-hidden="true" d="" display="none"></path></g></g><g class="mark-group role-legend" role="graphics-symbol" aria-roledescription="legend" aria-label="Symbol legend titled 'Survived' for stroke color with 2 values: 0, 1"><g transform="translate(218,0)"><path class="background" aria-hidden="true" d="M0,0h47v40h-47Z" pointer-events="none"></path><g><g class="mark-group role-legend-entry"><g transform="translate(0,16)"><path class="background" aria-hidden="true" d="M0,0h0v0h0Z" pointer-events="none"></path><g><g class="mark-group role-scope" role="graphics-object" aria-roledescription="group mark container"><g transform="translate(0,0)"><path class="background" aria-hidden="true" d="M0,0h21.5615234375v11h-21.5615234375Z" pointer-events="none" opacity="1"></path><g><g class="mark-symbol role-legend-symbol" pointer-events="none"><path transform="translate(6,6)" d="M-5,0L5,0" fill="transparent" stroke="#4c78a8" stroke-width="1.5" opacity="1"></path></g><g class="mark-text role-legend-label" pointer-events="none"><text text-anchor="start" transform="translate(16,9)" font-family="sans-serif" font-size="10px" fill="#000" opacity="1">0</text></g></g><path class="foreground" aria-hidden="true" d="" pointer-events="none" display="none"></path></g><g transform="translate(0,13)"><path class="background" aria-hidden="true" d="M0,0h21.5615234375v11h-21.5615234375Z" pointer-events="none" opacity="1"></path><g><g class="mark-symbol role-legend-symbol" pointer-events="none"><path transform="translate(6,6)" d="M-5,0L5,0" fill="transparent" stroke="#f58518" stroke-width="1.5" opacity="1"></path></g><g class="mark-text role-legend-label" pointer-events="none"><text text-anchor="start" transform="translate(16,9)" font-family="sans-serif" font-size="10px" fill="#000" opacity="1">1</text></g></g><path class="foreground" aria-hidden="true" d="" pointer-events="none" display="none"></path></g></g></g><path class="foreground" aria-hidden="true" d="" pointer-events="none" display="none"></path></g></g><g class="mark-text role-legend-title" pointer-events="none"><text text-anchor="start" transform="translate(0,9)" font-family="sans-serif" font-size="11px" font-weight="bold" fill="#000" opacity="1">Survived</text></g></g><path class="foreground" aria-hidden="true" d="" pointer-events="none" display="none"></path></g></g></g><path class="foreground" aria-hidden="true" d="" display="none"></path></g></g></g></svg>